<svg width="16" height="16" viewBox="0 0 16 16" fill="none" xmlns="http://www.w3.org/2000/svg">
<path d="M6.05746 2.77487C7.01779 1.05279 7.49757 0.19175 8.21536 0.19175C8.93314 0.19175 9.41293 1.05279 10.3733 2.77487L10.6219 3.22054C10.8947 3.71018 11.0312 3.955 11.2434 4.11645C11.4556 4.27789 11.7209 4.33777 12.2515 4.45753L12.7335 4.56668C14.5981 4.98886 15.5296 5.19957 15.7517 5.91281C15.973 6.62529 15.3379 7.36884 14.0668 8.85519L13.7378 9.23948C13.377 9.66166 13.1959 9.87313 13.1148 10.1339C13.0337 10.3954 13.061 10.6773 13.1155 11.2405L13.1656 11.7536C13.3573 13.7372 13.4536 14.7286 12.873 15.169C12.2924 15.6101 11.4192 15.2076 9.67443 14.4042L9.22193 14.1965C8.72622 13.9676 8.47837 13.8539 8.21536 13.8539C7.95235 13.8539 7.7045 13.9676 7.20803 14.1965L6.75705 14.4042C5.01148 15.2076 4.13831 15.6093 3.55847 15.1697C2.97712 14.7286 3.07338 13.7372 3.26514 11.7536L3.31517 11.2412C3.36974 10.6773 3.39703 10.3954 3.31517 10.1346C3.23483 9.87313 3.05367 9.66166 2.69289 9.24024L2.36393 8.85519C1.09284 7.3696 0.457673 6.62604 0.678996 5.91281C0.901077 5.19957 1.83336 4.9881 3.69794 4.56668L4.18 4.45753C4.70981 4.33777 4.97434 4.27789 5.18732 4.11645C5.39955 3.955 5.53598 3.71018 5.80885 3.22054L6.05746 2.77487Z" fill="#E9C711"/>
</svg>
